<mxfile host="app.diagrams.net" modified="2023-11-26T15:29:36.232Z" agent="Mozilla/5.0 (Macintosh; Intel Mac OS X 10_15_7) AppleWebKit/537.36 (KHTML, like Gecko) Chrome/119.0.0.0 Safari/537.36" etag="OzKYjVPs8wsWbKF27xVx" version="22.1.4" type="github">
  <diagram name="Page-1" id="Kv-syJiw0GcIvBqv4stt">
    <mxGraphModel dx="1026" dy="569" grid="1" gridSize="10" guides="1" tooltips="1" connect="1" arrows="1" fold="1" page="1" pageScale="1" pageWidth="850" pageHeight="1100" math="0" shadow="0">
      <root>
        <mxCell id="0" />
        <mxCell id="1" parent="0" />
        <mxCell id="0-Iu9_5RtlUPmFQVx73P-2" value="" style="rounded=0;whiteSpace=wrap;html=1;" vertex="1" parent="1">
          <mxGeometry x="440" y="280" width="110" height="120" as="geometry" />
        </mxCell>
        <mxCell id="0-Iu9_5RtlUPmFQVx73P-3" value="application&amp;nbsp; &amp;nbsp; &amp;nbsp; &amp;nbsp; &amp;nbsp; &amp;nbsp; &amp;nbsp; &amp;nbsp; &amp;nbsp; &amp;nbsp; &amp;nbsp; &amp;nbsp; &amp;nbsp; &amp;nbsp; &amp;nbsp; &amp;nbsp; &amp;nbsp; &amp;nbsp; &amp;nbsp; &amp;nbsp; &amp;nbsp; &amp;nbsp; &amp;nbsp; &amp;nbsp; &amp;nbsp; &amp;nbsp; &amp;nbsp; &amp;nbsp; &amp;nbsp; &amp;nbsp; &amp;nbsp; &amp;nbsp;&amp;nbsp;" style="rounded=0;whiteSpace=wrap;html=1;" vertex="1" parent="1">
          <mxGeometry x="20" y="280" width="290" height="120" as="geometry" />
        </mxCell>
        <mxCell id="0-Iu9_5RtlUPmFQVx73P-4" value="" style="shape=image;verticalLabelPosition=bottom;labelBackgroundColor=default;verticalAlign=top;aspect=fixed;imageAspect=0;image=https://static-00.iconduck.com/assets.00/prometheus-icon-511x512-1vmxbcxr.png;" vertex="1" parent="1">
          <mxGeometry x="460" y="289.59999999999997" width="70.66" height="70.8" as="geometry" />
        </mxCell>
        <mxCell id="0-Iu9_5RtlUPmFQVx73P-6" value="otel sdk&lt;br&gt;&lt;br&gt;&lt;br&gt;&lt;br&gt;&lt;br&gt;&lt;br&gt;&amp;nbsp; &amp;nbsp; &amp;nbsp; &amp;nbsp; &amp;nbsp; &amp;nbsp; &amp;nbsp; &amp;nbsp; &amp;nbsp; &amp;nbsp; &amp;nbsp; &amp;nbsp; &amp;nbsp; &amp;nbsp; &amp;nbsp; &amp;nbsp; &amp;nbsp; &amp;nbsp; &amp;nbsp; &amp;nbsp; &amp;nbsp; &amp;nbsp; &amp;nbsp;&amp;nbsp;" style="rounded=0;whiteSpace=wrap;html=1;" vertex="1" parent="1">
          <mxGeometry x="90" y="289.4" width="210" height="100.6" as="geometry" />
        </mxCell>
        <mxCell id="0-Iu9_5RtlUPmFQVx73P-9" value="prometheus" style="text;html=1;strokeColor=none;fillColor=none;align=center;verticalAlign=middle;whiteSpace=wrap;rounded=0;" vertex="1" parent="1">
          <mxGeometry x="460.44000000000005" y="360.4" width="60" height="30" as="geometry" />
        </mxCell>
        <mxCell id="0-Iu9_5RtlUPmFQVx73P-17" value="mapping happens&lt;br&gt;on client side" style="shape=callout;whiteSpace=wrap;html=1;perimeter=calloutPerimeter;base=10;size=40;position=0.5;position2=0.67;fillColor=#ffe6cc;strokeColor=#d79b00;" vertex="1" parent="1">
          <mxGeometry x="165" y="229.2" width="120" height="80.8" as="geometry" />
        </mxCell>
        <mxCell id="0-Iu9_5RtlUPmFQVx73P-19" value="Pull" style="text;html=1;align=center;verticalAlign=middle;resizable=0;points=[];autosize=1;strokeColor=none;fillColor=none;" vertex="1" parent="1">
          <mxGeometry x="345" y="310" width="40" height="30" as="geometry" />
        </mxCell>
        <mxCell id="0-Iu9_5RtlUPmFQVx73P-20" value="prometheus.exporter&lt;br&gt;WithMappedResourceAttributes" style="rounded=0;whiteSpace=wrap;html=1;" vertex="1" parent="1">
          <mxGeometry x="110" y="310" width="180" height="60" as="geometry" />
        </mxCell>
        <mxCell id="0-Iu9_5RtlUPmFQVx73P-21" style="edgeStyle=orthogonalEdgeStyle;rounded=0;orthogonalLoop=1;jettySize=auto;html=1;exitX=0;exitY=0.5;exitDx=0;exitDy=0;entryX=1;entryY=0.5;entryDx=0;entryDy=0;" edge="1" parent="1" source="0-Iu9_5RtlUPmFQVx73P-2" target="0-Iu9_5RtlUPmFQVx73P-20">
          <mxGeometry relative="1" as="geometry" />
        </mxCell>
      </root>
    </mxGraphModel>
  </diagram>
</mxfile>
